<svg xmlns="http://www.w3.org/2000/svg" viewBox="0 0 800 500" role="img" aria-label="Little Alchemy 2 artwork">
<defs>
<pattern id="p-little-alchemy-2" width="36" height="36" patternUnits="userSpaceOnUse"><path d="M36 0H0V36" fill="none" stroke="#f5f5f5" stroke-opacity="0.09" stroke-width="1"/></pattern>
<linearGradient id="fade-little-alchemy-2" x1="0" y1="0" x2="1" y2="0"><stop offset="0" stop-color="#050505"/><stop offset="0.55" stop-color="#050505" stop-opacity="0"/><stop offset="1" stop-color="#050505" stop-opacity="0"/></linearGradient>
</defs>
<rect width="800" height="500" fill="#0d0d0d"/>
<rect width="800" height="500" fill="url(#p-little-alchemy-2)" transform="translate(29 0)"/>
<g transform="translate(463 360) rotate(4.5) scale(3.16)" fill="none" stroke="#f5f5f5" stroke-width="3" stroke-linecap="round" stroke-linejoin="round" opacity="0.5"><path d="M30 30 h18 a7 7 0 1 1 14 0 h8 v18 a7 7 0 1 1 0 14 v8 h-18 a7 7 0 1 0 -14 0 h-8 v-18 a7 7 0 1 0 0 -14 z"/></g>
<rect x="219" y="394" width="10" height="10" fill="#f5f5f5" fill-opacity="0.22"/>
<rect width="800" height="500" fill="url(#fade-little-alchemy-2)"/>
<rect x="1" y="1" width="798" height="498" fill="none" stroke="#f5f5f5" stroke-opacity="0.14" stroke-width="2"/>
</svg>