<svg xmlns="http://www.w3.org/2000/svg" viewBox="0 0 800 500" role="img" aria-label="Papa's Freezeria artwork">
<defs>
<linearGradient id="bg" x1="0" y1="0" x2="1" y2="1"><stop offset="0" stop-color="#10151f"/><stop offset="1" stop-color="#0a0e15"/></linearGradient>
<radialGradient id="g1" cx="0.5" cy="0.5" r="0.5"><stop offset="0" stop-color="#22d3ee" stop-opacity="0.55"/><stop offset="1" stop-color="#22d3ee" stop-opacity="0"/></radialGradient>
<radialGradient id="g2" cx="0.5" cy="0.5" r="0.5"><stop offset="0" stop-color="#3b82f6" stop-opacity="0.4"/><stop offset="1" stop-color="#3b82f6" stop-opacity="0"/></radialGradient>
<linearGradient id="acc" x1="0" y1="0" x2="1" y2="0"><stop offset="0" stop-color="#22d3ee"/><stop offset="1" stop-color="#3b82f6"/></linearGradient>
<pattern id="dots" width="26" height="26" patternUnits="userSpaceOnUse"><circle cx="1.5" cy="1.5" r="1.5" fill="#ffffff" fill-opacity="0.05"/></pattern>
</defs>
<rect width="800" height="500" fill="url(#bg)"/>
<rect width="800" height="500" fill="url(#dots)"/>
<circle cx="277" cy="-38" r="290" fill="url(#g1)"/>
<circle cx="276" cy="411" r="260" fill="url(#g2)"/>
<g transform="translate(560 210) rotate(5.3) scale(2.6)" fill="none" stroke="url(#acc)" stroke-width="4.5" stroke-linecap="round" stroke-linejoin="round" opacity="0.85"><path d="M32 34 h36 a14 14 0 0 1 14 14 v4 l6 12 a8 8 0 0 1 -14 6 l-3 -5 H29 l-3 5 a8 8 0 0 1 -14 -6 l6 -12 v-4 a14 14 0 0 1 14 -14 z"/><circle cx="36" cy="53" r="4.5"/><circle cx="64" cy="53" r="4.5"/><path d="M46 44 l8 9 -8 9 M56 44 l-8 9 8 9"/></g>
<rect x="0" y="470" width="800" height="30" fill="#07090d" opacity="0.55"/>
<g font-family="ui-sans-serif, system-ui, -apple-system, 'Segoe UI', Roboto, sans-serif">
<rect x="40" y="392" width="72" height="8" rx="4" fill="url(#acc)"/>
<text x="40" y="452" font-size="46" font-weight="800" fill="#f2f6fc" letter-spacing="0.5">Papa's Freezeria</text>
<text x="42" y="384" font-size="19" font-weight="700" fill="#22d3ee" letter-spacing="3" text-transform="uppercase">ARCADE</text>
</g>
<rect x="1.5" y="1.5" width="797" height="497" rx="18" fill="none" stroke="#ffffff" stroke-opacity="0.08" stroke-width="3"/>
</svg>