<svg xmlns="http://www.w3.org/2000/svg" viewBox="0 0 800 500" role="img" aria-label="Quick, Draw! artwork">
<defs>
<linearGradient id="bg" x1="0" y1="0" x2="1" y2="1"><stop offset="0" stop-color="#10151f"/><stop offset="1" stop-color="#0a0e15"/></linearGradient>
<radialGradient id="g1" cx="0.5" cy="0.5" r="0.5"><stop offset="0" stop-color="#2dd4bf" stop-opacity="0.55"/><stop offset="1" stop-color="#2dd4bf" stop-opacity="0"/></radialGradient>
<radialGradient id="g2" cx="0.5" cy="0.5" r="0.5"><stop offset="0" stop-color="#a3e635" stop-opacity="0.4"/><stop offset="1" stop-color="#a3e635" stop-opacity="0"/></radialGradient>
<linearGradient id="acc" x1="0" y1="0" x2="1" y2="0"><stop offset="0" stop-color="#2dd4bf"/><stop offset="1" stop-color="#a3e635"/></linearGradient>
<pattern id="dots" width="26" height="26" patternUnits="userSpaceOnUse"><circle cx="1.5" cy="1.5" r="1.5" fill="#ffffff" fill-opacity="0.05"/></pattern>
</defs>
<rect width="800" height="500" fill="url(#bg)"/>
<rect width="800" height="500" fill="url(#dots)"/>
<circle cx="343" cy="17" r="290" fill="url(#g1)"/>
<circle cx="275" cy="481" r="260" fill="url(#g2)"/>
<g transform="translate(560 210) rotate(5.6) scale(2.6)" fill="none" stroke="url(#acc)" stroke-width="4.5" stroke-linecap="round" stroke-linejoin="round" opacity="0.85"><path d="M50 26 L82 42 50 58 18 42 z"/><path d="M32 50 v16 c0 6 8 12 18 12 s18 -6 18 -12 v-16"/><path d="M78 46 v16"/></g>
<rect x="0" y="470" width="800" height="30" fill="#07090d" opacity="0.55"/>
<g font-family="ui-sans-serif, system-ui, -apple-system, 'Segoe UI', Roboto, sans-serif">
<rect x="40" y="392" width="72" height="8" rx="4" fill="url(#acc)"/>
<text x="40" y="452" font-size="46" font-weight="800" fill="#f2f6fc" letter-spacing="0.5">Quick, Draw!</text>
<text x="42" y="384" font-size="19" font-weight="700" fill="#2dd4bf" letter-spacing="3" text-transform="uppercase">EDUCATIONAL</text>
</g>
<rect x="1.5" y="1.5" width="797" height="497" rx="18" fill="none" stroke="#ffffff" stroke-opacity="0.08" stroke-width="3"/>
</svg>